<svg width="700" height="700" viewBox="0 0 700 700" fill="none" xmlns="http://www.w3.org/2000/svg">
<rect width="700" height="700" fill="white"/>
<mask id="path-2-outside-1_52_13" maskUnits="userSpaceOnUse" x="144" y="166" width="412" height="430" fill="black">
<rect fill="white" x="144" y="166" width="412" height="430"/>
<path d="M338.6 315.2L300.2 172.4H548L435.8 590H412.4L350 357.8L287.6 590H264.2L152 172.4H174.8L275.6 548.6L338.6 315.2ZM519.2 194.6H329L361.4 315.2L424.4 548.6L519.2 194.6Z"/>
</mask>
<path d="M338.6 315.2L300.2 172.4H548L435.8 590H412.4L350 357.8L287.6 590H264.2L152 172.4H174.8L275.6 548.6L338.6 315.2ZM519.2 194.6H329L361.4 315.2L424.4 548.6L519.2 194.6Z" fill="#203344"/>
<path d="M338.6 315.2L344.393 316.764L344.814 315.203L344.394 313.642L338.6 315.2ZM300.2 172.4V166.4H292.373L294.406 173.958L300.2 172.4ZM548 172.4L553.795 173.957L555.825 166.4H548V172.4ZM435.8 590V596H440.401L441.595 591.557L435.8 590ZM412.4 590L406.606 591.557L407.8 596H412.4V590ZM350 357.8L355.794 356.243L350 334.681L344.206 356.243L350 357.8ZM287.6 590V596H292.2L293.394 591.557L287.6 590ZM264.2 590L258.406 591.557L259.599 596H264.2V590ZM152 172.4V166.4H144.175L146.206 173.957L152 172.4ZM174.8 172.4L180.596 170.847L179.404 166.4H174.8V172.4ZM275.6 548.6L269.804 550.153L275.579 571.703L281.393 550.164L275.6 548.6ZM519.2 194.6L524.996 196.152L527.018 188.6H519.2V194.6ZM329 194.6V188.6H321.175L323.205 196.157L329 194.6ZM361.4 315.2L355.605 316.757L355.607 316.764L361.4 315.2ZM424.4 548.6L418.607 550.164L424.423 571.709L430.196 550.152L424.4 548.6ZM344.394 313.642L305.994 170.842L294.406 173.958L332.806 316.758L344.394 313.642ZM300.2 178.4H548V166.4H300.2V178.4ZM542.206 170.843L430.006 588.443L441.595 591.557L553.795 173.957L542.206 170.843ZM435.8 584H412.4V596H435.8V584ZM418.194 588.443L355.794 356.243L344.206 359.357L406.606 591.557L418.194 588.443ZM344.206 356.243L281.806 588.443L293.394 591.557L355.794 359.357L344.206 356.243ZM287.6 584H264.2V596H287.6V584ZM269.995 588.443L157.794 170.843L146.206 173.957L258.406 591.557L269.995 588.443ZM152 178.4H174.8V166.4H152V178.4ZM169.004 173.953L269.804 550.153L281.396 547.047L180.596 170.847L169.004 173.953ZM281.393 550.164L344.393 316.764L332.807 313.636L269.807 547.036L281.393 550.164ZM519.2 188.6H329V200.6H519.2V188.6ZM323.205 196.157L355.605 316.757L367.195 313.643L334.795 193.043L323.205 196.157ZM355.607 316.764L418.607 550.164L430.193 547.036L367.193 313.636L355.607 316.764ZM430.196 550.152L524.996 196.152L513.404 193.048L418.604 547.048L430.196 550.152Z" fill="#203344" mask="url(#path-2-outside-1_52_13)"/>
</svg>
